# xmcd CD database file
#
# Track frame offsets:
#	180
#	28303
#	63404
#	92122
#	113854
#	126890
#	161111
#	190050
#	210951
#	217809
#	234804
#	262682
#
# Disc length: 3795 seconds
#
# Revision: 0
# Processed by: cddbd v1.5.1PL0 Copyright (c) Steve Scherf et al.
# Submitted via: CDex 1.51
#
DISCID=9b0ed10c
DTITLE=Peter King - Tamburello
DYEAR=1995
DGENRE=Jazz
TTITLE0=Dido's Lament
TTITLE1=You Taught My Heart How To Sing
TTITLE2=Boxer's Demise
TTITLE3=Leona
TTITLE4=Bess, Oh Where's My Bess?
TTITLE5=My Man's Gone Now
TTITLE6=Yes Or No
TTITLE7=Please Don't Ever Leave Me
TTITLE8=Theme From Bartok's Violin Concerto No. 2, Second Movement, Andante Tranquillo
TTITLE9=Tamburello
TTITLE10=Ayrton
TTITLE11=Imola
EXTD=YEAR: 1995
EXTT0=
EXTT1=
EXTT2=
EXTT3=
EXTT4=
EXTT5=
EXTT6=
EXTT7=
EXTT8=
EXTT9=
EXTT10=
EXTT11=
PLAYORDER=
